<svg id="Layer_1" data-name="Layer 1" xmlns="http://www.w3.org/2000/svg" viewBox="0 0 576 512"><defs><style>.cls-1{fill:#f0635f;}</style></defs><title>donation</title><path class="cls-1" d="M560,224H530.5a160.49,160.49,0,0,0-37.4-52.5L512,96H480c-29.4,0-55.4,13.5-73,34.3-7.6-1.1-15.1-2.3-23-2.3H256c-77.4,0-141.9,55-156.8,128H56a24,24,0,0,1-23.5-28.8C34.7,215.8,45.4,208,57,208h1a6,6,0,0,0,6-6V182a6,6,0,0,0-6-6C29.5,176,4.1,196.4.5,224.6A56,56,0,0,0,56,288H96c0,52.2,25.4,98.1,64,127.3V496a16,16,0,0,0,16,16h64a16,16,0,0,0,16-16V448H384v48a16,16,0,0,0,16,16h64a16,16,0,0,0,16-16V415.3A160,160,0,0,0,511.3,384H560a16,16,0,0,0,16-16V240A16,16,0,0,0,560,224ZM432,288a16,16,0,1,1,16-16A16,16,0,0,1,432,288Z"/><path class="cls-1" d="M256,114.79H384c5.4,0,10.7.4,15.9.8,0-.3.1-.5.1-.8a96,96,0,0,0-192,0c0,2.1.5,4.1.6,6.2A190.09,190.09,0,0,1,256,114.79Z"/></svg>