<svg id="Layer_1" data-name="Layer 1" xmlns="http://www.w3.org/2000/svg" viewBox="0 0 576 512"><defs><style>.cls-1{fill:#f0635f;}</style></defs><title>piorbene</title><path class="cls-1" d="M275.3,250.5a17.42,17.42,0,0,0,25.5,0L409.7,136.3c31.6-33.2,29.8-88.2-5.6-118.8C373.3-9.2,327.4-4.4,299.2,25.2L288,36.9,276.9,25.3C248.7-4.4,202.8-9.2,172,17.5c-35.3,30.6-37.2,85.6-5.6,118.8Zm290,77.6c-11.8-10.7-30.2-10-42.6,0L430.3,402a63.67,63.67,0,0,1-40,14H272a16,16,0,0,1,0-32h78.3c15.9,0,30.7-10.9,33.3-26.6A32,32,0,0,0,352,320H192a117.69,117.69,0,0,0-74.1,26.3L71.4,384H16A16,16,0,0,0,0,400v96a16,16,0,0,0,16,16H372.8a64.08,64.08,0,0,0,40-14L564,377A32,32,0,0,0,565.3,328.1Z"/></svg>